<svg viewBox="0 0 191 191" fill="none" xmlns="http://www.w3.org/2000/svg">
<path d="M159.167 23.875H31.8337C23.0556 23.875 15.917 31.0136 15.917 39.7917V151.208C15.917 159.986 23.0556 167.125 31.8337 167.125H159.167C167.945 167.125 175.084 159.986 175.084 151.208V39.7917C175.084 31.0136 167.945 23.875 159.167 23.875ZM31.8337 151.208V55.7083H159.167L159.175 151.208H31.8337Z" fill="black"/>
<path d="M125.001 85.2099L113.748 73.9568L95.4996 92.2052L77.2511 73.9568L65.998 85.2099L84.2465 103.458L65.998 121.707L77.2511 132.96L95.4996 114.711L113.748 132.96L125.001 121.707L106.753 103.458L125.001 85.2099Z" fill="black"/>
</svg>
