<svg width="16" height="16" viewBox="0 0 16 16" fill="none" xmlns="http://www.w3.org/2000/svg">
<rect width="16" height="16" fill="white"/>
<path d="M1.42941 10V7.11H1.79441V7.41C1.88775 7.31 1.99275 7.22833 2.10941 7.165C2.22608 7.09833 2.35275 7.065 2.48941 7.065C2.58608 7.065 2.66775 7.09 2.73441 7.14C2.80108 7.18667 2.85108 7.25667 2.88441 7.35C2.91775 7.44 2.93441 7.55 2.93441 7.68V10H2.56941V7.76C2.56941 7.61 2.54608 7.505 2.49941 7.445C2.45608 7.38167 2.38775 7.35 2.29441 7.35C2.21108 7.35 2.12608 7.375 2.03941 7.425C1.95275 7.475 1.87108 7.54 1.79441 7.62V10H1.42941ZM4.19031 10.045C3.99365 10.045 3.83865 10.0033 3.72531 9.92C3.61531 9.83333 3.53698 9.71 3.49031 9.55C3.44365 9.38667 3.42031 9.18833 3.42031 8.955V8.155C3.42031 7.92167 3.44365 7.725 3.49031 7.565C3.53698 7.40167 3.61531 7.27833 3.72531 7.195C3.83865 7.10833 3.99365 7.065 4.19031 7.065C4.39365 7.065 4.55031 7.10833 4.66031 7.195C4.77031 7.27833 4.84865 7.40167 4.89531 7.565C4.94198 7.725 4.96531 7.92167 4.96531 8.155V8.955C4.96531 9.18833 4.94198 9.38667 4.89531 9.55C4.84865 9.71 4.77031 9.83333 4.66031 9.92C4.55031 10.0033 4.39365 10.045 4.19031 10.045ZM4.19031 9.77C4.31698 9.77 4.40865 9.73667 4.46531 9.67C4.52531 9.60333 4.56198 9.51 4.57531 9.39C4.58865 9.26667 4.59531 9.12833 4.59531 8.975V8.135C4.59531 7.97833 4.58865 7.84167 4.57531 7.725C4.56198 7.605 4.52531 7.51167 4.46531 7.445C4.40865 7.375 4.31698 7.34 4.19031 7.34C4.06365 7.34 3.97198 7.375 3.91531 7.445C3.85865 7.51167 3.82365 7.605 3.81031 7.725C3.79698 7.84167 3.79031 7.97833 3.79031 8.135V8.975C3.79031 9.12833 3.79698 9.26667 3.81031 9.39C3.82365 9.51 3.85865 9.60333 3.91531 9.67C3.97198 9.73667 4.06365 9.77 4.19031 9.77ZM5.47238 10V7.11H5.83738V7.41C5.93072 7.31 6.03572 7.22833 6.15238 7.165C6.26905 7.09833 6.39572 7.065 6.53238 7.065C6.62905 7.065 6.71072 7.09 6.77738 7.14C6.84405 7.18667 6.89405 7.25667 6.92738 7.35C6.96072 7.44 6.97738 7.55 6.97738 7.68V10H6.61238V7.76C6.61238 7.61 6.58905 7.505 6.54238 7.445C6.49905 7.38167 6.43072 7.35 6.33738 7.35C6.25405 7.35 6.16905 7.375 6.08238 7.425C5.99572 7.475 5.91405 7.54 5.83738 7.62V10H5.47238ZM7.53828 10V9.45H7.92328V10H7.53828ZM8.4966 10V5.95H8.8766V9.715H10.0266V10H8.4966ZM11.2158 10.045C11.0991 10.045 10.9974 10.015 10.9108 9.955C10.8274 9.895 10.7574 9.83333 10.7008 9.77V10H10.3358V5.95H10.7008V7.35C10.7574 7.27667 10.8308 7.21167 10.9208 7.155C11.0108 7.095 11.1208 7.065 11.2508 7.065C11.3908 7.065 11.5041 7.09833 11.5908 7.165C11.6774 7.22833 11.7441 7.315 11.7908 7.425C11.8374 7.535 11.8691 7.65833 11.8858 7.795C11.9024 7.93167 11.9108 8.07167 11.9108 8.215V8.825C11.9108 9.07167 11.8891 9.28667 11.8458 9.47C11.8058 9.65 11.7358 9.79167 11.6358 9.895C11.5358 9.995 11.3958 10.045 11.2158 10.045ZM11.1508 9.755C11.2641 9.755 11.3474 9.72 11.4008 9.65C11.4574 9.58 11.4941 9.47667 11.5108 9.34C11.5308 9.2 11.5408 9.03167 11.5408 8.835V8.215C11.5408 8.02833 11.5308 7.87167 11.5108 7.745C11.4941 7.615 11.4574 7.51667 11.4008 7.45C11.3474 7.38333 11.2624 7.35 11.1458 7.35C11.0558 7.35 10.9708 7.375 10.8908 7.425C10.8141 7.475 10.7508 7.525 10.7008 7.575V9.545C10.7541 9.60167 10.8191 9.65167 10.8958 9.695C10.9724 9.735 11.0574 9.755 11.1508 9.755ZM13.0709 10.045C12.8409 10.045 12.6575 9.97167 12.5209 9.825C12.3842 9.675 12.3059 9.475 12.2859 9.225L12.5909 9.13C12.6109 9.35333 12.6625 9.51667 12.7459 9.62C12.8292 9.72 12.9459 9.77 13.0959 9.77C13.2225 9.77 13.3192 9.735 13.3859 9.665C13.4559 9.59167 13.4909 9.49 13.4909 9.36C13.4909 9.26667 13.4625 9.17333 13.4059 9.08C13.3492 8.98333 13.2609 8.88333 13.1409 8.78L12.7459 8.44C12.6159 8.33 12.5175 8.22 12.4509 8.11C12.3842 8 12.3509 7.86833 12.3509 7.715C12.3509 7.575 12.3792 7.45833 12.4359 7.365C12.4959 7.26833 12.5775 7.195 12.6809 7.145C12.7842 7.09167 12.9042 7.065 13.0409 7.065C13.2609 7.065 13.4275 7.13667 13.5409 7.28C13.6542 7.42 13.7159 7.60167 13.7259 7.825L13.4659 7.91C13.4592 7.78 13.4392 7.67333 13.4059 7.59C13.3725 7.50333 13.3259 7.44 13.2659 7.4C13.2092 7.36 13.1392 7.34 13.0559 7.34C12.9459 7.34 12.8559 7.37167 12.7859 7.435C12.7192 7.495 12.6859 7.58 12.6859 7.69C12.6859 7.77667 12.7025 7.85333 12.7359 7.92C12.7692 7.98667 12.8309 8.06167 12.9209 8.145L13.3309 8.51C13.4109 8.58 13.4875 8.655 13.5609 8.735C13.6342 8.815 13.6942 8.905 13.7409 9.005C13.7875 9.10167 13.8109 9.21667 13.8109 9.35C13.8109 9.5 13.7792 9.62667 13.7159 9.73C13.6559 9.83 13.5709 9.90833 13.4609 9.965C13.3509 10.0183 13.2209 10.045 13.0709 10.045ZM14.2473 10V9.45H14.6323V10H14.2473Z" fill="black"/>
</svg>
