<svg viewBox="0 0 216 60" fill="none" xmlns="http://www.w3.org/2000/svg">
  <path d="M0.0320001 59V17.384H5.288V21.704C6.632 20.264 8.144 19.088 9.824 18.176C11.504 17.216 13.328 16.736 15.296 16.736C16.688 16.736 17.864 17.096 18.824 17.816C19.784 18.488 20.504 19.496 20.984 20.84C21.464 22.136 21.704 23.72 21.704 25.592V59H16.448V26.744C16.448 24.584 16.112 23.072 15.44 22.208C14.816 21.296 13.832 20.84 12.488 20.84C11.288 20.84 10.064 21.2 8.816 21.92C7.568 22.64 6.392 23.576 5.288 24.728V59H0.0320001ZM43.3889 59.648C40.5569 59.648 38.3249 59.048 36.6929 57.848C35.1089 56.6 33.9809 54.824 33.3089 52.52C32.6369 50.168 32.3009 47.312 32.3009 43.952V32.432C32.3009 29.072 32.6369 26.24 33.3089 23.936C33.9809 21.584 35.1089 19.808 36.6929 18.608C38.3249 17.36 40.5569 16.736 43.3889 16.736C46.3169 16.736 48.5729 17.36 50.1569 18.608C51.7409 19.808 52.8689 21.584 53.5409 23.936C54.2129 26.24 54.5489 29.072 54.5489 32.432V43.952C54.5489 47.312 54.2129 50.168 53.5409 52.52C52.8689 54.824 51.7409 56.6 50.1569 57.848C48.5729 59.048 46.3169 59.648 43.3889 59.648ZM43.3889 55.688C45.2129 55.688 46.5329 55.208 47.3489 54.248C48.2129 53.288 48.7409 51.944 48.9329 50.216C49.1249 48.44 49.2209 46.448 49.2209 44.24V32.144C49.2209 29.888 49.1249 27.92 48.9329 26.24C48.7409 24.512 48.2129 23.168 47.3489 22.208C46.5329 21.2 45.2129 20.696 43.3889 20.696C41.5649 20.696 40.2449 21.2 39.4289 22.208C38.6129 23.168 38.1089 24.512 37.9169 26.24C37.7249 27.92 37.6289 29.888 37.6289 32.144V44.24C37.6289 46.448 37.7249 48.44 37.9169 50.216C38.1089 51.944 38.6129 53.288 39.4289 54.248C40.2449 55.208 41.5649 55.688 43.3889 55.688ZM65.4507 59V17.384H70.7067V21.704C72.0507 20.264 73.5627 19.088 75.2427 18.176C76.9227 17.216 78.7467 16.736 80.7147 16.736C82.1067 16.736 83.2827 17.096 84.2427 17.816C85.2027 18.488 85.9227 19.496 86.4027 20.84C86.8827 22.136 87.1227 23.72 87.1227 25.592V59H81.8667V26.744C81.8667 24.584 81.5307 23.072 80.8587 22.208C80.2347 21.296 79.2507 20.84 77.9067 20.84C76.7067 20.84 75.4827 21.2 74.2347 21.92C72.9867 22.64 71.8107 23.576 70.7067 24.728V59H65.4507ZM98.7997 59V51.08H104.344V59H98.7997ZM116.2 59V0.679996H121.672V54.896H138.232V59H116.2ZM158.956 59.648C157.276 59.648 155.812 59.216 154.564 58.352C153.364 57.488 152.356 56.6 151.54 55.688V59H146.284V0.679996H151.54V20.84C152.356 19.784 153.412 18.848 154.708 18.032C156.004 17.168 157.588 16.736 159.46 16.736C161.476 16.736 163.108 17.216 164.356 18.176C165.604 19.088 166.564 20.336 167.236 21.92C167.908 23.504 168.364 25.28 168.604 27.248C168.844 29.216 168.964 31.232 168.964 33.296V42.08C168.964 45.632 168.652 48.728 168.028 51.368C167.452 53.96 166.444 56 165.004 57.488C163.564 58.928 161.548 59.648 158.956 59.648ZM158.02 55.472C159.652 55.472 160.852 54.968 161.62 53.96C162.436 52.952 162.964 51.464 163.204 49.496C163.492 47.48 163.636 45.056 163.636 42.224V33.296C163.636 30.608 163.492 28.352 163.204 26.528C162.964 24.656 162.436 23.24 161.62 22.28C160.852 21.32 159.628 20.84 157.948 20.84C156.652 20.84 155.428 21.2 154.276 21.92C153.172 22.64 152.26 23.36 151.54 24.08V52.448C152.308 53.264 153.244 53.984 154.348 54.608C155.452 55.184 156.676 55.472 158.02 55.472ZM189.269 59.648C185.957 59.648 183.317 58.592 181.349 56.48C179.381 54.32 178.253 51.44 177.965 47.84L182.357 46.472C182.645 49.688 183.389 52.04 184.589 53.528C185.789 54.968 187.469 55.688 189.629 55.688C191.453 55.688 192.845 55.184 193.805 54.176C194.813 53.12 195.317 51.656 195.317 49.784C195.317 48.44 194.909 47.096 194.093 45.752C193.277 44.36 192.005 42.92 190.277 41.432L184.589 36.536C182.717 34.952 181.301 33.368 180.341 31.784C179.381 30.2 178.901 28.304 178.901 26.096C178.901 24.08 179.309 22.4 180.125 21.056C180.989 19.664 182.165 18.608 183.653 17.888C185.141 17.12 186.869 16.736 188.837 16.736C192.005 16.736 194.405 17.768 196.037 19.832C197.669 21.848 198.557 24.464 198.701 27.68L194.957 28.904C194.861 27.032 194.573 25.496 194.093 24.296C193.613 23.048 192.941 22.136 192.077 21.56C191.261 20.984 190.253 20.696 189.053 20.696C187.469 20.696 186.173 21.152 185.165 22.064C184.205 22.928 183.725 24.152 183.725 25.736C183.725 26.984 183.965 28.088 184.445 29.048C184.925 30.008 185.813 31.088 187.109 32.288L193.013 37.544C194.165 38.552 195.269 39.632 196.325 40.784C197.381 41.936 198.245 43.232 198.917 44.672C199.589 46.064 199.925 47.72 199.925 49.64C199.925 51.8 199.469 53.624 198.557 55.112C197.693 56.552 196.469 57.68 194.885 58.496C193.301 59.264 191.429 59.648 189.269 59.648ZM209.809 59V51.08H215.353V59H209.809Z" fill="white" />
</svg>
