<svg viewBox="0 0 16 24" fill="none" xmlns="http://www.w3.org/2000/svg">
<path d="M10.375 15.5C10.25 15.8958 10.1823 16.5104 10.1719 17.3438H5.95312C6.01562 15.5833 6.18229 14.3698 6.45312 13.7031C6.72396 13.026 7.42188 12.25 8.54688 11.375L9.6875 10.4844C10.0625 10.2031 10.3646 9.89583 10.5938 9.5625C11.0104 8.98958 11.2188 8.35938 11.2188 7.67188C11.2188 6.88021 10.9844 6.16146 10.5156 5.51562C10.0573 4.85938 9.21354 4.53125 7.98438 4.53125C6.77604 4.53125 5.91667 4.93229 5.40625 5.73438C4.90625 6.53646 4.65625 7.36979 4.65625 8.23438H0.140625C0.265625 5.26562 1.30208 3.16146 3.25 1.92188C4.47917 1.13021 5.98958 0.734375 7.78125 0.734375C10.1354 0.734375 12.0885 1.29688 13.6406 2.42188C15.2031 3.54688 15.9844 5.21354 15.9844 7.42188C15.9844 8.77604 15.6458 9.91667 14.9688 10.8438C14.5729 11.4062 13.8125 12.125 12.6875 13L11.5781 13.8594C10.974 14.3281 10.5729 14.875 10.375 15.5ZM10.5 24H5.84375V19.4844H10.5V24Z" fill="black"/>
</svg>
